<!--
	Icons from the Zondicons set by Steve Schoger (https://zondicons.com).
	Licensed CC BY 4.0 (https://creativecommons.org/licenses/by/4.0/).
-->
<svg xmlns="http://www.w3.org/2000/svg" xmlns:xlink="http://www.w3.org/1999/xlink" style="display: none">
	<symbol	id="icon-error" viewBox="0 0 20 20">
			<title>Error</title>
			<path
				d="M2.929 17.071c3.905 3.905 10.237 3.905 14.142 0 3.905-3.905 3.905-10.237 0-14.142-3.905-3.905-10.237-3.905-14.142 0-3.905 3.905-3.905 10.237 0 14.142zM9 5h2v6H9V5zm0 8h2v2H9v-2z"
				fill="currentColor"
				fill-rule="evenodd"
				aria-hidden="true"
			/>
	</symbol>
	<symbol id="icon-search" viewBox="0 0 20 20">
		<title>Search</title>
		<path
			d="M11.192 12.606a7 7 0 1 1 1.414-1.414l1.41 1.41a1.991 1.991 0 0 1 1.932.518l2.832 2.831c.78.78.785 2.04-.002 2.827a1.994 1.994 0 0 1-2.827.002l-2.831-2.832a1.994 1.994 0 0 1-.518-1.932l-1.41-1.41zM7 12A5 5 0 1 0 7 2a5 5 0 0 0 0 10z"
			fill="currentColor"
			fill-rule="evenodd"
			aria-hidden="true"
		/>
	</symbol>
</svg>
